<?xml version="1.0" encoding="utf-8"?>
<!-- Generator: Adobe Illustrator 19.0.0, SVG Export Plug-In . SVG Version: 6.00 Build 0)  -->
<svg version="1.1" id="레이어_1" xmlns="http://www.w3.org/2000/svg" xmlns:xlink="http://www.w3.org/1999/xlink" x="0px"
	 y="0px" viewBox="0 0 1458 220" style="enable-background:new 0 0 1458 220;" xml:space="preserve">
<style type="text/css">
	.st0{fill:#9500FF;}
</style>
<path id="XMLID_178_" class="st0" d="M12.7,175.8l18.8-25.7c10.3,9.9,22.2,16.5,35.6,16.5c15.8,0,26.1-6.7,26.1-19.5
	c0-14.7-7.8-23.4-43.6-23.4V95c29.1,0,38.3-8.9,38.3-22.5c0-11.7-6.9-18.1-19.5-18.1c-11.5,0-20.2,5.3-30.5,14.2l-20.6-25
	c15.8-13.3,32.8-21.1,53-21.1c35.3,0,58.5,16.5,58.5,47c0,17-9.2,30.3-27.5,37.6v1.1c19,5.7,33,19.5,33,41.5
	c0,31.9-29.1,49.8-63.1,49.8C44.1,199.6,25.1,190.2,12.7,175.8z"/>
<path id="XMLID_175_" class="st0" d="M247.8,67.1c-5.5-6-16.1-11.9-25.5-11.9c-17.7,0-31.7,12.6-33.3,49.8
	c8.5-10.8,22.9-16.7,32.6-16.7c28.4,0,50,16.5,50,53.7c0,36.2-25.7,57.8-56.2,57.8c-32.1,0-63.8-25-63.8-87.2
	c0-61.7,32.6-89.9,67.9-89.9c22.5,0,39,9.4,49.8,20.4L247.8,67.1z M234.3,141.8c0-18.8-9.2-25-20.4-25c-8.5,0-17.2,4.1-24.1,15.4
	c3.4,28.4,14,36.9,24.8,36.9C225.4,169.1,234.3,161.1,234.3,141.8z"/>
<path id="XMLID_173_" class="st0" d="M281.3,176l18.6-25.7c9.6,9.2,21.6,16.3,35.1,16.3c16.5,0,26.8-8.9,26.8-26.6
	c0-17.2-10.3-26.4-25-26.4c-9.4,0-14,1.8-24.1,8.3l-17.9-11.7l4.4-84.4h95.9v33.9h-60.8l-2.5,28.9c6.2-2.5,11.2-3.4,17.7-3.4
	c28.9,0,53.2,17,53.2,53.9c0,38.3-28.9,60.6-61.7,60.6C313.6,199.6,294.8,189.3,281.3,176z"/>
<path id="XMLID_171_" class="st0" d="M479,25.8h42l10.8,77.8l6.9,54.1h0.9c3.2-18.1,6.7-36.5,10.1-54.1l17.4-77.8h34.4l17.9,77.8
	c3.4,17.4,6.4,35.8,9.9,54.1h1.1c2.1-18.3,4.4-36.5,6.4-54.1l11-77.8h39l-29.6,170.6h-51.6l-15.4-74.3c-2.8-13.1-5-26.8-6.7-39.7
	h-1.1c-2.1,12.8-4.1,26.6-6.7,39.7l-14.9,74.3h-50.7L479,25.8z"/>
<path id="XMLID_169_" class="st0" d="M709.9,25.8H751v170.6h-20.5h-20.5V25.8z"/>
<path id="XMLID_167_" class="st0" d="M823.2,59.7h-46.1V25.8h133.5v33.9h-46.3v136.7h-41.1V59.7z"/>
<path id="XMLID_165_" class="st0" d="M937,25.8h41.1v64.9h56.2V25.8h40.6v170.6h-40.6v-70.2h-56.2v70.2H937V25.8z"/>
<path id="XMLID_163_" class="st0" d="M1164.1,116.1V25.8h40.8v94.7c0,32.3,9.6,43.8,28.4,43.8c18.6,0,28.9-11.5,28.9-43.8V25.8h39.5
	v90.4c0,57.6-22.9,83.5-68.3,83.5C1187.7,199.6,1164.1,173.7,1164.1,116.1z"/>
<path id="XMLID_161_" class="st0" d="M1316.6,175.1l23.2-28.2c12.2,10.3,28,17.4,41.5,17.4c15.1,0,22.2-5.7,22.2-14.9
	c0-9.9-9.4-13.1-24.1-19.3l-21.8-9.2c-17.9-7.1-34.6-22-34.6-46.8c0-28.7,25.7-51.6,61.9-51.6c19.7,0,40.6,7.6,55.5,22.5L1420,70.7
	c-11.2-8.5-21.8-13.1-35.1-13.1c-12.6,0-20.4,5-20.4,14.2c0,9.4,10.8,13.1,25.9,19l21.3,8.5c21.1,8.5,33.7,22.7,33.7,46.8
	c0,28.4-23.9,53.4-65.1,53.4C1358.1,199.6,1334.2,191.4,1316.6,175.1z"/>
<g id="XMLID_155_">
	<circle id="XMLID_160_" class="st0" cx="441.7" cy="48.3" r="25.9"/>
	<circle id="XMLID_156_" class="st0" cx="441.7" cy="169.1" r="25.9"/>
</g>
<g id="XMLID_133_">
	<circle id="XMLID_135_" class="st0" cx="1121.8" cy="48.3" r="25.9"/>
	<circle id="XMLID_134_" class="st0" cx="1121.8" cy="169.1" r="25.9"/>
</g>
<path id="XMLID_25_" class="st0" d="M1465.7,1043.8l18.8-25.7c10.3,9.9,22.2,16.5,35.6,16.5c15.8,0,26.1-6.7,26.1-19.5
	c0-14.7-7.8-23.4-43.6-23.4V963c29.1,0,38.3-8.9,38.3-22.5c0-11.7-6.9-18.1-19.5-18.1c-11.5,0-20.2,5.3-30.5,14.2l-20.6-25
	c15.8-13.3,32.8-21.1,53-21.1c35.3,0,58.5,16.5,58.5,47c0,17-9.2,30.3-27.5,37.6v1.1c19,5.7,33,19.5,33,41.5
	c0,31.9-29.1,49.8-63.1,49.8C1497.1,1067.6,1478.1,1058.2,1465.7,1043.8z"/>
<path id="XMLID_22_" class="st0" d="M1700.8,935.1c-5.5-6-16.1-11.9-25.5-11.9c-17.7,0-31.7,12.6-33.3,49.8
	c8.5-10.8,22.9-16.7,32.6-16.7c28.4,0,50,16.5,50,53.7c0,36.2-25.7,57.8-56.2,57.8c-32.1,0-63.8-25-63.8-87.2
	c0-61.7,32.6-89.9,67.9-89.9c22.5,0,39,9.4,49.8,20.4L1700.8,935.1z M1687.3,1009.8c0-18.8-9.2-25-20.4-25
	c-8.5,0-17.2,4.1-24.1,15.4c3.4,28.4,14,36.9,24.8,36.9S1687.3,1029.1,1687.3,1009.8z"/>
<path id="XMLID_20_" class="st0" d="M1734.3,1044l18.6-25.7c9.6,9.2,21.6,16.3,35.1,16.3c16.5,0,26.8-8.9,26.8-26.6
	c0-17.2-10.3-26.4-25-26.4c-9.4,0-14,1.8-24.1,8.3l-17.9-11.7l4.4-84.4h95.9v33.9h-60.8l-2.5,28.9c6.2-2.5,11.2-3.4,17.7-3.4
	c28.9,0,53.2,17,53.2,53.9c0,38.3-28.9,60.6-61.7,60.6C1766.6,1067.6,1747.8,1057.3,1734.3,1044z"/>
<path id="XMLID_18_" class="st0" d="M1932,893.8h42l10.8,77.8l6.9,54.1h0.9c3.2-18.1,6.7-36.5,10.1-54.1l17.4-77.8h34.4l17.9,77.8
	c3.4,17.4,6.4,35.8,9.9,54.1h1.1c2.1-18.3,4.4-36.5,6.4-54.1l11-77.8h39l-29.6,170.6h-51.6l-15.4-74.3c-2.8-13.1-5-26.8-6.7-39.7
	h-1.1c-2.1,12.8-4.1,26.6-6.7,39.7l-14.9,74.3h-50.7L1932,893.8z"/>
<path id="XMLID_16_" class="st0" d="M2162.9,893.8h41.1v170.6h-20.5h-20.5V893.8z"/>
<path id="XMLID_14_" class="st0" d="M2276.2,927.7h-46.1v-33.9h133.5v33.9h-46.3v136.7h-41.1V927.7z"/>
<path id="XMLID_12_" class="st0" d="M2390,893.8h41.1v64.9h56.2v-64.9h40.6v170.6h-40.6v-70.2h-56.2v70.2H2390V893.8z"/>
<path id="XMLID_10_" class="st0" d="M2617.1,984.1v-90.4h40.8v94.7c0,32.3,9.6,43.8,28.4,43.8c18.6,0,28.9-11.5,28.9-43.8v-94.7
	h39.5v90.4c0,57.6-22.9,83.5-68.3,83.5C2640.7,1067.6,2617.1,1041.7,2617.1,984.1z"/>
<path id="XMLID_8_" class="st0" d="M2769.6,1043.1l23.2-28.2c12.2,10.3,28,17.4,41.5,17.4c15.1,0,22.2-5.7,22.2-14.9
	c0-9.9-9.4-13.1-24.1-19.3l-21.8-9.2c-17.9-7.1-34.6-22-34.6-46.8c0-28.7,25.7-51.6,61.9-51.6c19.7,0,40.6,7.6,55.5,22.5l-20.4,25.7
	c-11.2-8.5-21.8-13.1-35.1-13.1c-12.6,0-20.4,5-20.4,14.2c0,9.4,10.8,13.1,25.9,19l21.3,8.5c21.1,8.5,33.7,22.7,33.7,46.8
	c0,28.4-23.9,53.4-65.1,53.4C2811.1,1067.6,2787.2,1059.4,2769.6,1043.1z"/>
<g id="XMLID_5_">
	<circle id="XMLID_7_" class="st0" cx="1894.7" cy="916.3" r="25.9"/>
	<circle id="XMLID_6_" class="st0" cx="1894.7" cy="1037.1" r="25.9"/>
</g>
<g id="XMLID_2_">
	<circle id="XMLID_4_" class="st0" cx="2574.8" cy="916.3" r="25.9"/>
	<circle id="XMLID_3_" class="st0" cx="2574.8" cy="1037.1" r="25.9"/>
</g>
</svg>
